<?xml version="1.0" encoding="UTF-8" standalone="no"?>
<!DOCTYPE svg PUBLIC "-//W3C//DTD SVG 1.1//EN"
 "http://www.w3.org/Graphics/SVG/1.1/DTD/svg11.dtd">
<!-- Generated by graphviz version 2.38.0 (20140413.2041)
 -->
<!-- Title: %3 Pages: 1 -->
<svg width="629pt" height="256pt"
 viewBox="0.00 0.00 629.19 255.68" xmlns="http://www.w3.org/2000/svg" xmlns:xlink="http://www.w3.org/1999/xlink">
<g id="graph0" class="graph" transform="scale(1 1) rotate(0) translate(4 251.678)">
<title>%3</title>
<polygon fill="white" stroke="none" points="-4,4 -4,-251.678 625.188,-251.678 625.188,4 -4,4"/>
<!-- open_sync -->
<g id="node1" class="node"><title>open_sync</title>
<ellipse fill="none" stroke="black" cx="117" cy="-90.6778" rx="27" ry="18"/>
<text text-anchor="middle" x="117" y="-86.9778" font-family="Times New Roman,serif" font-size="14.00">(</text>
</g>
<!-- open_multi -->
<g id="node3" class="node"><title>open_multi</title>
<ellipse fill="none" stroke="black" cx="207" cy="-165.678" rx="27" ry="18"/>
<text text-anchor="middle" x="207" y="-161.978" font-family="Times New Roman,serif" font-size="14.00">[</text>
</g>
<!-- open_sync&#45;&gt;open_multi -->
<g id="edge8" class="edge"><title>open_sync&#45;&gt;open_multi</title>
<path fill="none" stroke="black" d="M134.552,-104.785C147.827,-116.098 166.651,-132.142 181.646,-144.921"/>
<polygon fill="black" stroke="black" points="179.641,-147.811 189.522,-151.634 184.182,-142.484 179.641,-147.811"/>
</g>
<!-- group_digit -->
<g id="node6" class="node"><title>group_digit</title>
<ellipse fill="none" stroke="black" cx="303.797" cy="-127.678" rx="33.5952" ry="18"/>
<text text-anchor="middle" x="303.797" y="-123.978" font-family="Times New Roman,serif" font-size="14.00">0,1,2..</text>
</g>
<!-- open_sync&#45;&gt;group_digit -->
<g id="edge7" class="edge"><title>open_sync&#45;&gt;group_digit</title>
<path fill="none" stroke="black" d="M143.308,-95.7449C173.807,-101.851 225.467,-112.195 261.707,-119.451"/>
<polygon fill="black" stroke="black" points="261.461,-122.971 271.953,-121.502 262.835,-116.107 261.461,-122.971"/>
</g>
<!-- close_sync -->
<g id="node2" class="node"><title>close_sync</title>
<ellipse fill="none" stroke="black" cx="400.594" cy="-229.678" rx="27" ry="18"/>
<text text-anchor="middle" x="400.594" y="-225.978" font-family="Times New Roman,serif" font-size="14.00">)</text>
</g>
<!-- close_sync&#45;&gt;open_multi -->
<g id="edge15" class="edge"><title>close_sync&#45;&gt;open_multi</title>
<path fill="none" stroke="black" d="M373.445,-227.833C346.668,-225.262 304.238,-219.275 270,-205.678 257.036,-200.529 243.884,-192.524 233.048,-185.023"/>
<polygon fill="black" stroke="black" points="235.069,-182.165 224.903,-179.18 230.988,-187.853 235.069,-182.165"/>
</g>
<!-- digit -->
<g id="node5" class="node"><title>digit</title>
<ellipse fill="none" stroke="black" cx="497.391" cy="-93.6778" rx="33.5952" ry="18"/>
<text text-anchor="middle" x="497.391" y="-89.9778" font-family="Times New Roman,serif" font-size="14.00">0,1,2..</text>
</g>
<!-- close_sync&#45;&gt;digit -->
<g id="edge16" class="edge"><title>close_sync&#45;&gt;digit</title>
<path fill="none" stroke="black" d="M414.868,-213.968C419.048,-208.856 423.612,-203.101 427.594,-197.678 446.653,-171.722 466.791,-140.816 480.319,-119.477"/>
<polygon fill="black" stroke="black" points="483.317,-121.285 485.69,-110.959 477.396,-117.551 483.317,-121.285"/>
</g>
<!-- end -->
<g id="node8" class="node"><title>end</title>
<ellipse fill="none" stroke="black" cx="594.188" cy="-93.6778" rx="27" ry="18"/>
<text text-anchor="middle" x="594.188" y="-89.9778" font-family="Times New Roman,serif" font-size="14.00">end</text>
</g>
<!-- close_sync&#45;&gt;end -->
<g id="edge19" class="edge"><title>close_sync&#45;&gt;end</title>
<path fill="none" stroke="black" d="M420.114,-216.808C445.322,-199.261 491.808,-166.792 531.188,-138.678 542.975,-130.263 555.952,-120.865 566.974,-112.842"/>
<polygon fill="black" stroke="black" points="569.315,-115.467 575.335,-106.749 565.192,-109.811 569.315,-115.467"/>
</g>
<!-- open_multi&#45;&gt;group_digit -->
<g id="edge9" class="edge"><title>open_multi&#45;&gt;group_digit</title>
<path fill="none" stroke="black" d="M230.466,-156.672C241.266,-152.343 254.481,-147.045 266.647,-142.169"/>
<polygon fill="black" stroke="black" points="268.133,-145.344 276.113,-138.374 265.529,-138.846 268.133,-145.344"/>
</g>
<!-- close_multi -->
<g id="node4" class="node"><title>close_multi</title>
<ellipse fill="none" stroke="black" cx="400.594" cy="-47.6778" rx="27" ry="18"/>
<text text-anchor="middle" x="400.594" y="-43.9778" font-family="Times New Roman,serif" font-size="14.00">]</text>
</g>
<!-- close_multi&#45;&gt;open_sync -->
<g id="edge13" class="edge"><title>close_multi&#45;&gt;open_sync</title>
<path fill="none" stroke="black" d="M373.555,-47.8368C332.083,-48.5821 248.694,-52.0979 180,-67.6778 169.862,-69.9771 159.139,-73.5272 149.514,-77.1557"/>
<polygon fill="black" stroke="black" points="147.976,-73.9994 139.951,-80.9162 150.538,-80.5139 147.976,-73.9994"/>
</g>
<!-- close_multi&#45;&gt;digit -->
<g id="edge14" class="edge"><title>close_multi&#45;&gt;digit</title>
<path fill="none" stroke="black" d="M423.105,-58.1159C434.798,-63.7898 449.522,-70.9349 462.7,-77.3295"/>
<polygon fill="black" stroke="black" points="461.433,-80.6045 471.957,-81.8214 464.488,-74.3068 461.433,-80.6045"/>
</g>
<!-- close_multi&#45;&gt;end -->
<g id="edge18" class="edge"><title>close_multi&#45;&gt;end</title>
<path fill="none" stroke="black" d="M427.839,-49.475C454.327,-51.7635 496.203,-56.6879 531.188,-66.6778 541.882,-69.7313 553.151,-74.2219 563.105,-78.668"/>
<polygon fill="black" stroke="black" points="561.638,-81.846 572.184,-82.8687 564.578,-75.493 561.638,-81.846"/>
</g>
<!-- digit&#45;&gt;open_sync -->
<g id="edge5" class="edge"><title>digit&#45;&gt;open_sync</title>
<path fill="none" stroke="black" d="M463.326,-93.4156C392.669,-92.8554 227.444,-91.5455 154.135,-90.9643"/>
<polygon fill="black" stroke="black" points="154.036,-87.4635 144.008,-90.884 153.98,-94.4632 154.036,-87.4635"/>
</g>
<!-- digit&#45;&gt;open_multi -->
<g id="edge6" class="edge"><title>digit&#45;&gt;open_multi</title>
<path fill="none" stroke="black" d="M476.009,-107.718C446.88,-126.843 390.95,-160.139 337.594,-172.678 306.225,-180.05 269.459,-177 243.116,-172.873"/>
<polygon fill="black" stroke="black" points="243.658,-169.415 233.214,-171.194 242.488,-176.316 243.658,-169.415"/>
</g>
<!-- digit&#45;&gt;digit -->
<g id="edge4" class="edge"><title>digit&#45;&gt;digit</title>
<path fill="none" stroke="black" d="M480.815,-109.594C476.491,-119.828 482.016,-129.678 497.391,-129.678 507.481,-129.678 513.329,-125.436 514.935,-119.627"/>
<polygon fill="black" stroke="black" points="518.411,-119.212 513.967,-109.594 511.444,-119.884 518.411,-119.212"/>
</g>
<!-- digit&#45;&gt;end -->
<g id="edge17" class="edge"><title>digit&#45;&gt;end</title>
<path fill="none" stroke="black" d="M531.28,-93.6778C539.477,-93.6778 548.315,-93.6778 556.675,-93.6778"/>
<polygon fill="black" stroke="black" points="556.924,-97.1779 566.924,-93.6778 556.924,-90.1779 556.924,-97.1779"/>
</g>
<!-- group_digit&#45;&gt;close_sync -->
<g id="edge12" class="edge"><title>group_digit&#45;&gt;close_sync</title>
<path fill="none" stroke="black" d="M319.609,-143.615C335.445,-160.654 360.686,-187.813 378.573,-207.06"/>
<polygon fill="black" stroke="black" points="376.133,-209.575 385.504,-214.517 381.26,-204.81 376.133,-209.575"/>
</g>
<!-- group_digit&#45;&gt;close_multi -->
<g id="edge11" class="edge"><title>group_digit&#45;&gt;close_multi</title>
<path fill="none" stroke="black" d="M322.628,-112.63C337.425,-100.142 358.625,-82.2518 375.03,-68.4077"/>
<polygon fill="black" stroke="black" points="377.727,-70.7113 383.112,-61.587 373.212,-65.3616 377.727,-70.7113"/>
</g>
<!-- group_digit&#45;&gt;group_digit -->
<g id="edge10" class="edge"><title>group_digit&#45;&gt;group_digit</title>
<path fill="none" stroke="black" d="M287.221,-143.594C282.897,-153.828 288.422,-163.678 303.797,-163.678 313.887,-163.678 319.735,-159.436 321.341,-153.627"/>
<polygon fill="black" stroke="black" points="324.817,-153.212 320.373,-143.594 317.85,-153.884 324.817,-153.212"/>
</g>
<!-- start -->
<g id="node7" class="node"><title>start</title>
<ellipse fill="none" stroke="black" cx="27" cy="-90.6778" rx="27" ry="18"/>
<text text-anchor="middle" x="27" y="-86.9778" font-family="Times New Roman,serif" font-size="14.00">start</text>
</g>
<!-- start&#45;&gt;open_sync -->
<g id="edge2" class="edge"><title>start&#45;&gt;open_sync</title>
<path fill="none" stroke="black" d="M54.4029,-90.6778C62.3932,-90.6778 71.3106,-90.6778 79.8241,-90.6778"/>
<polygon fill="black" stroke="black" points="79.919,-94.1779 89.919,-90.6778 79.919,-87.1779 79.919,-94.1779"/>
</g>
<!-- start&#45;&gt;open_multi -->
<g id="edge3" class="edge"><title>start&#45;&gt;open_multi</title>
<path fill="none" stroke="black" d="M50.0524,-100.398C61.8761,-105.581 76.708,-112.034 90,-117.678 118.262,-129.678 150.546,-143.006 173.868,-152.567"/>
<polygon fill="black" stroke="black" points="172.696,-155.869 183.276,-156.419 175.348,-149.391 172.696,-155.869"/>
</g>
<!-- start&#45;&gt;digit -->
<g id="edge1" class="edge"><title>start&#45;&gt;digit</title>
<path fill="none" stroke="black" d="M43.8357,-76.3784C73.4041,-51.2201 140.009,-1.67777 206,-1.67777 206,-1.67777 206,-1.67777 304.797,-1.67777 360.023,-1.67777 378.718,5.03332 427.594,-20.6778 448.856,-31.8626 467.181,-52.1914 479.56,-68.5613"/>
<polygon fill="black" stroke="black" points="476.761,-70.6644 485.475,-76.6913 482.422,-66.546 476.761,-70.6644"/>
</g>
</g>
</svg>
